<svg xmlns="http://www.w3.org/2000/svg" viewBox="0 0 45 45"><defs><style>.cls-1{fill:#fff;}</style></defs><g id="Camada_2" data-name="Camada 2"><g id="Camada_1-2" data-name="Camada 1"><path class="cls-1" d="M21.52,20.64V1.05a1,1,0,0,1,1-1c.57,0,.93.41.93,1.08V20.62c2.95,1,4.31,2.95,3.83,5.4a4.91,4.91,0,0,1-9.57-.13C17.32,23.41,18.72,21.48,21.52,20.64Zm1,1.75a2.79,2.79,0,1,0,2.93,2.8A2.88,2.88,0,0,0,22.51,22.39Z"/><path class="cls-1" d="M5.8,14a17.56,17.56,0,0,1,2.13,1.15,4.36,4.36,0,0,1,1.34,5.44A4.94,4.94,0,0,1,4,23.17a4.71,4.71,0,0,1-3.94-4,4.48,4.48,0,0,1,3.18-4.8.82.82,0,0,0,.7-.94c0-4,0-7.91,0-11.87,0-.13,0-.26,0-.39C3.9.43,4.25,0,4.85,0s.94.42.94,1.19q0,6.12,0,12.26Zm2,4.66a1.31,1.31,0,0,0,0-.28,2.58,2.58,0,0,0-1-1.83,2.67,2.67,0,0,0-1.69-.69,4.53,4.53,0,0,0-.66.06,3.58,3.58,0,0,0-.7.2A2.74,2.74,0,0,0,2,19.39a3,3,0,0,0,3.16,2.05A2.82,2.82,0,0,0,7.79,18.65Z"/><path class="cls-1" d="M39.17,7.58V1.13c0-.72.35-1.12.94-1.13s1,.41,1,1.11V7.56c3,1.15,4.34,3.07,3.8,5.51a4.83,4.83,0,0,1-4.81,3.64,4.78,4.78,0,0,1-4.75-3.9C34.91,10.46,36.3,8.55,39.17,7.58Zm3.92,4.52a3,3,0,0,0-5.93,0,3,3,0,0,0,5.93,0Z"/><path class="cls-1" d="M39.17,32.52V21.39a3.62,3.62,0,0,1,0-.57.88.88,0,0,1,.93-.78.9.9,0,0,1,.94.72,2.09,2.09,0,0,1,0,.56V43.7a2.9,2.9,0,0,1,0,.51.93.93,0,0,1-1,.79.9.9,0,0,1-.89-.83,4.34,4.34,0,0,1,0-.51Z"/><path class="cls-1" d="M5.8,36c0,2.56,0,5.13,0,7.69a4.24,4.24,0,0,1,0,.62.85.85,0,0,1-.85.73.87.87,0,0,1-1-.61,2.39,2.39,0,0,1-.07-.66V28.1A2.11,2.11,0,0,1,4,27.49a.87.87,0,0,1,1-.65.84.84,0,0,1,.84.74c0,.2,0,.41,0,.62Z"/><path class="cls-1" d="M23.43,39v4.84c0,.72-.35,1.12-.95,1.12s-1-.41-1-1.12V34.2c0-.7.37-1.12,1-1.12s.95.41.95,1.12Z"/></g></g></svg>